<svg width="640" height="480" xmlns="http://www.w3.org/2000/svg">
 <g>
  <title>Layer 1</title>
  <g stroke="null" transform="rotate(15.075010299682617 320.0000305175782,240.00000000000003) " id="svg_26">
   <path stroke="null" id="svg_5" fill="#1c2d6b" d="m244.223804,335.694915l-35.963207,9.637061c-2.611469,0.700445 -2.611469,4.406193 0,5.106638l35.971136,9.631775c1.287232,0.346258 2.140982,1.601772 1.958602,2.920722c-1.284589,9.272301 -3.734824,18.261781 -7.226474,26.799276c-0.504849,1.231725 -1.86609,1.887236 -3.153322,1.543621l-35.949991,-9.637061c-2.611469,-0.700445 -4.466987,2.511028 -2.553319,4.422052l26.326146,26.318216c0.938332,0.938332 1.051989,2.442305 0.24053,3.49165c-5.651135,7.295197 -12.214169,13.916381 -19.607164,19.667957c-1.049345,0.816745 -2.558605,0.705731 -3.49958,-0.235244l-26.360507,-26.344648c-1.913668,-1.911024 -5.122497,-0.05815 -4.422052,2.553319l9.637061,35.971136c0.343614,1.287232 -0.311896,2.645831 -1.543621,3.145393c-4.244959,1.720715 -8.635293,3.198257 -13.176289,4.414123s-9.081992,2.133052 -13.617701,2.764774c-1.31895,0.185023 -2.566535,-0.666083 -2.910149,-1.953315l-9.637061,-35.971136c-0.700445,-2.611469 -4.406193,-2.611469 -5.106638,0l-9.655563,35.989639c-0.346258,1.287232 -1.601772,2.140982 -2.920722,1.958602c-9.272301,-1.284589 -18.261781,-3.734824 -26.80192,-7.226474c-1.231725,-0.504849 -1.887236,-1.86609 -1.543621,-3.153322l9.637061,-35.949991c0.700445,-2.611469 -2.511028,-4.466987 -4.422052,-2.553319l-26.318216,26.323503c-0.938332,0.938332 -2.442305,1.051989 -3.49165,0.24053c-7.295197,-5.651135 -13.916381,-12.214169 -19.665314,-19.60452c-0.816745,-1.049345 -0.705731,-2.558605 0.235244,-3.49958l26.339362,-26.331432c1.913668,-1.911024 0.05815,-5.122497 -2.553319,-4.422052l-35.963207,9.637061c-1.287232,0.343614 -2.645831,-0.309253 -3.145393,-1.543621c-1.723358,-4.252888 -3.203543,-8.661725 -4.422052,-13.202721c-1.215866,-4.540996 -2.133052,-9.081992 -2.764774,-13.617701c-0.185023,-1.31895 0.666083,-2.566535 1.953315,-2.910149l35.963207,-9.637061c2.611469,-0.700445 2.611469,-4.406193 0,-5.106638l-35.971136,-9.634418c-1.287232,-0.343614 -2.140982,-1.599128 -1.958602,-2.920722c1.281946,-9.277588 3.711035,-18.282927 7.215901,-26.830995c0.504849,-1.229082 1.868733,-1.884593 3.153322,-1.540978l35.952634,9.637061c2.611469,0.700445 4.466987,-2.511028 2.553319,-4.422052l-26.326146,-26.318216c-0.938332,-0.938332 -1.051989,-2.442305 -0.24053,-3.49165c5.651135,-7.295197 12.214169,-13.913738 19.607164,-19.665314c1.049345,-0.816745 2.558605,-0.705731 3.49958,0.235244l26.365794,26.363151c1.911024,1.911024 5.122497,0.05815 4.422052,-2.553319l-9.644991,-35.992282c-0.343614,-1.284589 0.309253,-2.645831 1.543621,-3.145393c4.244959,-1.720715 8.635293,-3.198257 13.176289,-4.414123s9.081992,-2.133052 13.617701,-2.767417c1.31895,-0.185023 2.566535,0.666083 2.910149,1.953315l9.644991,35.994925c0.700445,2.611469 4.406193,2.611469 5.106638,0l9.568338,-35.704175c0.377976,-1.411462 1.829086,-2.249352 3.240548,-1.868733l26.159625,7.049381c1.408819,0.380619 2.244066,1.829086 1.86609,3.235261l-9.557765,35.648668c-0.700445,2.611469 2.511028,4.466987 4.422052,2.553319l26.32086,-26.326146c0.938332,-0.938332 2.439662,-1.054632 3.49165,-0.243173c7.313699,5.651135 13.924311,12.240601 19.673243,19.636239c0.816745,1.049345 0.705731,2.558605 -0.235244,3.49958l-26.339362,26.334075c-1.913668,1.911024 -0.05815,5.122497 2.553319,4.422052l35.963207,-9.637061c1.287232,-0.343614 2.645831,0.309253 3.145393,1.543621c1.720715,4.244959 3.198257,8.635293 4.414123,13.176289s2.138339,9.100494 2.772704,13.644133c0.18238,1.321594 -0.668726,2.569178 -1.953315,2.912792z"/>
   <path stroke="null" id="svg_6" fill="#1c2d6b" d="m611.87266,237.183323l-35.963207,9.637061c-2.611469,0.700445 -2.611469,4.406193 0,5.106638l35.971136,9.631775c1.287232,0.346258 2.140982,1.601772 1.958602,2.920722c-1.284589,9.272301 -3.734824,18.261781 -7.226474,26.799276c-0.504849,1.231725 -1.86609,1.887236 -3.153322,1.543621l-35.949991,-9.637061c-2.611469,-0.700445 -4.466987,2.511028 -2.553319,4.422052l26.326146,26.318216c0.938332,0.938332 1.051989,2.442305 0.24053,3.49165c-5.651135,7.295197 -12.214169,13.916381 -19.607164,19.667957c-1.049345,0.816745 -2.558605,0.705731 -3.49958,-0.235244l-26.360507,-26.344648c-1.913668,-1.911024 -5.122497,-0.05815 -4.422052,2.553319l9.637061,35.971136c0.343614,1.287232 -0.311896,2.645831 -1.543621,3.145393c-4.244959,1.720715 -8.635293,3.198257 -13.176289,4.414123s-9.081992,2.133052 -13.617701,2.764774c-1.31895,0.185023 -2.566535,-0.666083 -2.910149,-1.953315l-9.637061,-35.971136c-0.700445,-2.611469 -4.406193,-2.611469 -5.106638,0l-9.655563,35.989639c-0.346258,1.287232 -1.601772,2.140982 -2.920722,1.958602c-9.272301,-1.284589 -18.261781,-3.734824 -26.80192,-7.226474c-1.231725,-0.504849 -1.887236,-1.86609 -1.543621,-3.153322l9.637061,-35.949991c0.700445,-2.611469 -2.511028,-4.466987 -4.422052,-2.553319l-26.318216,26.323503c-0.938332,0.938332 -2.442305,1.051989 -3.49165,0.24053c-7.295197,-5.651135 -13.916381,-12.214169 -19.665314,-19.60452c-0.816745,-1.049345 -0.705731,-2.558605 0.235244,-3.49958l26.339362,-26.331432c1.913668,-1.911024 0.05815,-5.122497 -2.553319,-4.422052l-35.963207,9.637061c-1.287232,0.343614 -2.645831,-0.309253 -3.145393,-1.543621c-1.723358,-4.252888 -3.203543,-8.661725 -4.422052,-13.202721c-1.215866,-4.540996 -2.133052,-9.081992 -2.764774,-13.617701c-0.185023,-1.31895 0.666083,-2.566535 1.953315,-2.910149l35.963207,-9.637061c2.611469,-0.700445 2.611469,-4.406193 0,-5.106638l-35.971136,-9.634418c-1.287232,-0.343614 -2.140982,-1.599128 -1.958602,-2.920722c1.281946,-9.277588 3.711035,-18.282927 7.215901,-26.830995c0.504849,-1.229082 1.868733,-1.884593 3.153322,-1.540978l35.952634,9.637061c2.611469,0.700445 4.466987,-2.511028 2.553319,-4.422052l-26.326146,-26.318216c-0.938332,-0.938332 -1.051989,-2.442305 -0.24053,-3.49165c5.651135,-7.295197 12.214169,-13.913738 19.607164,-19.665314c1.049345,-0.816745 2.558605,-0.705731 3.49958,0.235244l26.365794,26.363151c1.911024,1.911024 5.122497,0.05815 4.422052,-2.553319l-9.644991,-35.992282c-0.343614,-1.287232 0.309253,-2.645831 1.543621,-3.145393c4.244959,-1.720715 8.635293,-3.198257 13.176289,-4.414123s9.081992,-2.133052 13.617701,-2.767417c1.31895,-0.185023 2.566535,0.666083 2.910149,1.953315l9.644991,35.992282c0.700445,2.611469 4.406193,2.611469 5.106638,0l9.568338,-35.704175c0.377976,-1.411462 1.829086,-2.249352 3.240548,-1.868733l26.159625,7.049381c1.408819,0.380619 2.244066,1.829086 1.86609,3.237904l-9.557765,35.648668c-0.700445,2.611469 2.511028,4.466987 4.422052,2.553319l26.32086,-26.326146c0.938332,-0.938332 2.439662,-1.054632 3.49165,-0.243173c7.313699,5.651135 13.924311,12.240601 19.673243,19.636239c0.816745,1.049345 0.705731,2.558605 -0.235244,3.49958l-26.339362,26.334075c-1.913668,1.911024 -0.05815,5.122497 2.553319,4.422052l35.963207,-9.637061c1.287232,-0.343614 2.645831,0.309253 3.145393,1.543621c1.720715,4.244959 3.198257,8.635293 4.414123,13.176289s2.138339,9.100494 2.772704,13.644133c0.185023,1.321594 -0.666083,2.569178 -1.953315,2.912792z"/>
   <path stroke="null" id="svg_7" fill="#ede49d" d="m104.904042,356.258912c-13.601842,-50.762413 -10.628256,-95.664879 6.64233,-100.290457c-50.762413,13.601842 -80.886819,65.77836 -67.284977,116.540773s65.77836,80.886819 116.540773,67.284977c-17.270586,4.625578 -42.296284,-32.77288 -55.898126,-83.535293z"/>
   <path stroke="null" id="svg_8" fill="#d3ba2a" d="m111.546372,255.968455c17.270586,-4.628221 42.296284,32.770237 55.898126,83.532649s10.628256,95.664879 -6.64233,100.290457c50.762413,-13.601842 80.886819,-65.77836 67.284977,-116.540773c-13.601842,-50.75977 -65.77836,-80.884176 -116.540773,-67.282334z"/>
   <ellipse stroke="null" id="svg_9" transform="matrix(2.5533189688992186,-0.6845855206468919,0.6845855206468919,2.5533189688992186,-2044.3828138456015,-1526.7061690162902) " ry="36" rx="12.248" fill="#eee045" cy="898.566618" cx="613.124792"/>
   <path stroke="null" id="svg_10" fill="#ede49d" d="m472.552899,257.74732c-13.601842,-50.762413 -10.628256,-95.664879 6.64233,-100.290457c-50.762413,13.601842 -80.886819,65.77836 -67.284977,116.540773s65.77836,80.886819 116.540773,67.284977c-17.270586,4.628221 -42.296284,-32.77288 -55.898126,-83.535293z"/>
   <path stroke="null" id="svg_11" fill="#d3ba2a" d="m479.195228,157.456863c17.270586,-4.628221 42.296284,32.770237 55.898126,83.532649s10.628256,95.664879 -6.64233,100.290457c50.762413,-13.601842 80.886819,-65.77836 67.284977,-116.540773c-13.601842,-50.75977 -65.77836,-80.884176 -116.540773,-67.282334z"/>
   <ellipse stroke="null" id="svg_12" transform="matrix(2.5533189688992186,-0.6845855206468919,0.6845855206468919,2.5533189688992186,-2006.3579207953076,-1434.9082727534847) " ry="36" rx="12.248" fill="#eee045" cy="861.296618" cx="752.217792"/>
   <g stroke="null" transform="matrix(2.643187338404988,0,0,2.643187338404988,-1935.1028765265855,-1580.8624343928698) " id="svg_13" fill="#1c2d6b">
    <path stroke="null" id="svg_14" d="m783.637079,768.708297c-17.219,0 -33.017,-11.506 -37.68,-28.91c-5.565,-20.772 6.806,-42.2 27.577,-47.765c20.772,-5.567 42.199,6.805 47.765,27.577c5.565,20.771 -6.806,42.198 -27.577,47.765c-3.367,0.902 -6.753,1.333 -10.085,1.333zm0.046,-72.019c-2.867,0 -5.752,0.377 -8.596,1.139c-8.515,2.281 -15.631,7.742 -20.038,15.376c-4.407,7.633 -5.578,16.526 -3.297,25.041c4.71,17.576 22.841,28.043 40.417,23.335c17.576,-4.71 28.044,-22.841 23.335,-40.417c-2.282,-8.515 -7.742,-15.631 -15.376,-20.038c-5.083,-2.936 -10.728,-4.436 -16.445,-4.436z"/>
    <path stroke="null" id="svg_15" d="m922.658079,731.451297c-6.758,0 -13.427,-1.772 -19.436,-5.242c-9.022,-5.209 -15.476,-13.619 -18.171,-23.682c-2.696,-10.062 -1.313,-20.571 3.896,-29.594c5.209,-9.021 13.618,-15.475 23.681,-18.171c20.769,-5.565 42.199,6.805 47.765,27.577c2.696,10.062 1.313,20.572 -3.896,29.594s-13.618,15.476 -23.681,18.171c-3.36,0.9 -6.77,1.347 -10.158,1.347zm0.117,-72.032c-2.867,0 -5.752,0.377 -8.595,1.139c-8.514,2.282 -15.63,7.742 -20.037,15.376s-5.578,16.527 -3.297,25.041c2.281,8.515 7.742,15.631 15.376,20.038c7.634,4.408 16.527,5.577 25.041,3.297c8.514,-2.281 15.63,-7.742 20.037,-15.376s5.578,-16.526 3.297,-25.041c-2.281,-8.515 -7.742,-15.631 -15.376,-20.038c-5.084,-2.936 -10.728,-4.436 -16.446,-4.436z"/>
    <path stroke="null" id="svg_16" d="m783.629079,732.704297c-0.829,0 -1.636,-0.345 -2.212,-0.973c-0.756,-0.825 -0.99,-2.002 -0.607,-3.053l25.04,-68.826c0.335,-0.92 1.098,-1.619 2.043,-1.872l69.546,-18.635c1.095,-0.297 2.267,0.057 3.021,0.907l8.856,9.986c0.031,0.034 0.062,0.068 0.092,0.104l35.559,40.101c1.1,1.239 0.986,3.136 -0.254,4.234c-1.239,1.101 -3.135,0.988 -4.234,-0.254l-32.845,-37.038l-31.859,55.183c-0.397,0.689 -1.053,1.191 -1.821,1.397l-69.549,18.636c-0.257,0.069 -0.518,0.103 -0.776,0.103zm27.325,-69.333l-22.536,61.944l62.781,-16.823l32.237,-55.838l-6.236,-7.033l-66.246,17.75z"/>
    <path stroke="null" id="svg_17" d="m870.979079,734.145297c-0.828,0 -1.652,-0.341 -2.245,-1.01l-62.31,-70.268c-1.1,-1.239 -0.986,-3.136 0.254,-4.234s3.135,-0.986 4.234,0.254l62.31,70.268c1.1,1.239 0.986,3.136 -0.254,4.234c-0.571,0.507 -1.281,0.756 -1.989,0.756z"/>
    <path stroke="null" id="svg_18" d="m859.384079,737.252297c-1.324,0 -2.537,-0.884 -2.896,-2.225c-0.429,-1.601 0.521,-3.245 2.121,-3.674l17.387,-4.659c1.6,-0.434 3.246,0.521 3.674,2.121c0.429,1.601 -0.521,3.245 -2.121,3.674l-17.387,4.659c-0.259,0.07 -0.521,0.104 -0.778,0.104z"/>
    <path stroke="null" id="svg_19" d="m896.018079,665.319297c-0.828,0 -1.652,-0.341 -2.246,-1.01l-30.237,-34.1c-1.853,-2.09 -2.479,-4.935 -1.676,-7.61c0.804,-2.674 2.894,-4.702 5.591,-5.425l21.164,-5.67c1.601,-0.433 3.246,0.521 3.674,2.121c0.429,1.601 -0.521,3.245 -2.121,3.674l-21.164,5.67c-0.972,0.261 -1.301,1.035 -1.397,1.356s-0.248,1.149 0.42,1.903l30.236,34.1c1.1,1.239 0.986,3.136 -0.254,4.235c-0.572,0.507 -1.282,0.756 -1.99,0.756z"/>
   </g>
   <path stroke="null" id="svg_20" fill="#a4d4a0" d="m159.85855,155.009272c-1.921597,-7.165681 -2.312789,-13.689067 -1.427321,-17.92874l-19.057381,1.461683c-13.472326,1.030843 -22.691763,14.048541 -19.194826,27.1006c3.0846,11.511081 14.915506,18.341077 26.426587,15.259121l26.183414,-7.015019c-4.054649,1.083707 -9.845873,-7.366563 -12.930472,-18.877644z"/>
   <path stroke="null" id="svg_21" fill="#419b46" d="m177.803149,135.597704l24.674154,5.698712l6.158626,22.982514l39.679528,-10.630899l-6.158626,-22.982514l-64.353682,4.932188z"/>
   <path stroke="null" id="svg_22" fill="#65bc49" d="m177.803149,135.597704l-19.37192,1.485471c-0.885468,4.239672 -0.491633,10.760416 1.427321,17.92874c3.0846,11.511081 8.87318,19.961351 12.930472,18.875001l35.846907,-9.605343l-6.158626,-22.982514l-24.674154,-5.701355z"/>
   <path stroke="null" id="svg_23" fill="#1c2d6b" d="m140.97562,189.576876c-5.114567,0 -10.160412,-1.342739 -14.704051,-3.964781c-6.82471,-3.940992 -11.70932,-10.303144 -13.747217,-17.918167c-2.278427,-8.505777 -0.668726,-17.50583 4.422052,-24.692656c5.088136,-7.186826 13.04413,-11.693461 21.824798,-12.367474l102.782983,-7.874055c3.845838,-0.285464 7.276695,2.167414 8.265247,5.85466l6.158626,22.979871c0.544497,2.032611 0.261676,4.194738 -0.792956,6.015894c-1.049345,1.821156 -2.783276,3.148036 -4.813244,3.692533l-101.707206,27.253905c-2.548033,0.681942 -5.12514,1.02027 -7.689032,1.02027zm95.22611,-50.500737l-96.219949,7.371849c-4.062579,0.311896 -7.741896,2.394728 -10.094332,5.719857s-3.100459,7.48815 -2.045827,11.421212c0.943618,3.520726 3.203543,6.465236 6.359509,8.289035s6.832639,2.307503 10.356008,1.363885l94.047249,-25.200148l-2.402657,-8.965691z"/>
   <path stroke="null" id="svg_24" fill="#6287c5" d="m366.304716,42.269257l45.959741,-12.322539l7.025901,26.204713l-45.959741,12.322539l-7.025901,-26.204713z"/>
   <path stroke="null" id="svg_25" fill="#1c2d6b" d="m373.272139,76.461674c-3.49958,0 -6.703123,-2.336578 -7.654671,-5.881092l-7.022949,-26.201916c-0.544497,-2.032611 -0.261676,-4.194738 0.790313,-6.015894c1.051989,-1.818513 2.785919,-3.148036 4.815887,-3.692533l45.957098,-12.31461c2.029968,-0.541853 4.194738,-0.261676 6.015894,0.792956c1.821156,1.049345 3.148036,2.783276 3.692533,4.813244l7.020306,26.204559c1.133927,4.231743 -1.377101,8.577143 -5.6062,9.71107l-45.954455,12.311967c-0.684586,0.185023 -1.374457,0.272248 -2.053757,0.272248zm2.693408,-28.527921l2.918079,10.884645l30.637184,-8.207097l-2.918079,-10.884645l-30.637184,8.207097z"/>
  </g>
 </g>
</svg>