<svg id="Layer_1" enable-background="new 0 0 256 256" height="512" viewBox="0 0 256 256" width="512"
  xmlns="http://www.w3.org/2000/svg">
  <path
    d="m98.022 162.653-13.606 3.646c-.988.265-.988 1.667 0 1.932l13.609 3.644c.487.131.81.606.741 1.105-.486 3.508-1.413 6.909-2.734 10.139-.191.466-.706.714-1.193.584l-13.601-3.646c-.988-.265-1.69.95-.966 1.673l9.96 9.957c.355.355.398.924.091 1.321-2.138 2.76-4.621 5.265-7.418 7.441-.397.309-.968.267-1.324-.089l-9.973-9.967c-.724-.723-1.938-.022-1.673.966l3.646 13.609c.13.487-.118 1.001-.584 1.19-1.606.651-3.267 1.21-4.985 1.67s-3.436.807-5.152 1.046c-.499.07-.971-.252-1.101-.739l-3.646-13.609c-.265-.988-1.667-.988-1.932 0l-3.653 13.616c-.131.487-.606.81-1.105.741-3.508-.486-6.909-1.413-10.14-2.734-.466-.191-.714-.706-.584-1.193l3.646-13.601c.265-.988-.95-1.69-1.673-.966l-9.957 9.959c-.355.355-.924.398-1.321.091-2.76-2.138-5.265-4.621-7.44-7.417-.309-.397-.267-.968.089-1.324l9.965-9.962c.724-.723.022-1.938-.966-1.673l-13.606 3.646c-.487.13-1.001-.117-1.19-.584-.652-1.609-1.212-3.277-1.673-4.995-.46-1.718-.807-3.436-1.046-5.152-.07-.499.252-.971.739-1.101l13.606-3.646c.988-.265.988-1.667 0-1.932l-13.609-3.645c-.487-.13-.81-.605-.741-1.105.485-3.51 1.404-6.917 2.73-10.151.191-.465.707-.713 1.193-.583l13.602 3.646c.988.265 1.69-.95.966-1.673l-9.96-9.957c-.355-.355-.398-.924-.091-1.321 2.138-2.76 4.621-5.264 7.418-7.44.397-.309.968-.267 1.324.089l9.975 9.974c.723.723 1.938.022 1.673-.966l-3.649-13.617c-.13-.486.117-1.001.584-1.19 1.606-.651 3.267-1.21 4.985-1.67s3.436-.807 5.152-1.047c.499-.07.971.252 1.101.739l3.649 13.618c.265.988 1.667.988 1.932 0l3.62-13.508c.143-.534.692-.851 1.226-.707l9.897 2.667c.533.144.849.692.706 1.224l-3.616 13.487c-.265.988.95 1.69 1.673.966l9.958-9.96c.355-.355.923-.399 1.321-.092 2.767 2.138 5.268 4.631 7.443 7.429.309.397.267.968-.089 1.324l-9.965 9.963c-.724.723-.022 1.938.966 1.673l13.606-3.646c.487-.13 1.001.117 1.19.584.651 1.606 1.21 3.267 1.67 4.985s.809 3.443 1.049 5.162c.069.5-.253.972-.739 1.102z"
    fill="#1c2d6b" />
  <path
    d="m237.115 125.383-13.606 3.646c-.988.265-.988 1.667 0 1.932l13.609 3.644c.487.131.81.606.741 1.105-.486 3.508-1.413 6.909-2.734 10.139-.191.466-.706.714-1.193.584l-13.601-3.646c-.988-.265-1.69.95-.966 1.673l9.96 9.957c.355.355.398.924.091 1.321-2.138 2.76-4.621 5.265-7.418 7.441-.397.309-.968.267-1.324-.089l-9.973-9.967c-.724-.723-1.938-.022-1.673.966l3.646 13.609c.13.487-.118 1.001-.584 1.19-1.606.651-3.267 1.21-4.985 1.67s-3.436.807-5.152 1.046c-.499.07-.971-.252-1.101-.739l-3.646-13.609c-.265-.988-1.667-.988-1.932 0l-3.653 13.616c-.131.487-.606.81-1.105.741-3.508-.486-6.909-1.413-10.14-2.734-.466-.191-.714-.706-.584-1.193l3.646-13.601c.265-.988-.95-1.69-1.673-.966l-9.957 9.959c-.355.355-.924.398-1.321.091-2.76-2.138-5.265-4.621-7.44-7.417-.309-.397-.267-.968.089-1.324l9.965-9.962c.724-.723.022-1.938-.966-1.673l-13.606 3.646c-.487.13-1.001-.117-1.19-.584-.652-1.609-1.212-3.277-1.673-4.995-.46-1.718-.807-3.436-1.046-5.152-.07-.499.252-.971.739-1.101l13.606-3.646c.988-.265.988-1.667 0-1.932l-13.609-3.645c-.487-.13-.81-.605-.741-1.105.485-3.51 1.404-6.917 2.73-10.151.191-.465.707-.713 1.193-.583l13.602 3.646c.988.265 1.69-.95.966-1.673l-9.96-9.957c-.355-.355-.398-.924-.091-1.321 2.138-2.76 4.621-5.264 7.418-7.44.397-.309.968-.267 1.324.089l9.975 9.974c.723.723 1.938.022 1.673-.966l-3.649-13.617c-.13-.487.117-1.001.584-1.19 1.606-.651 3.267-1.21 4.985-1.67s3.436-.807 5.152-1.047c.499-.07.971.252 1.101.739l3.649 13.617c.265.988 1.667.988 1.932 0l3.62-13.508c.143-.534.692-.851 1.226-.707l9.897 2.667c.533.144.849.692.706 1.225l-3.616 13.487c-.265.988.95 1.69 1.673.966l9.958-9.96c.355-.355.923-.399 1.321-.092 2.767 2.138 5.268 4.631 7.443 7.429.309.397.267.968-.089 1.324l-9.965 9.963c-.724.723-.022 1.938.966 1.673l13.606-3.646c.487-.13 1.001.117 1.19.584.651 1.606 1.21 3.267 1.67 4.985s.809 3.443 1.049 5.162c.07.5-.252.972-.739 1.102z"
    fill="#1c2d6b" />
  <path
    d="m45.313 170.433c-5.146-19.205-4.021-36.193 2.513-37.943-19.205 5.146-30.602 24.886-25.456 44.091s24.886 30.602 44.091 25.456c-6.534 1.75-16.002-12.399-21.148-31.604z"
    fill="#ede49d" />
  <path
    d="m47.826 132.49c6.534-1.751 16.002 12.398 21.148 31.603s4.021 36.193-2.513 37.943c19.205-5.146 30.602-24.886 25.456-44.091-5.146-19.204-24.886-30.601-44.091-25.455z"
    fill="#d3ba2a" />
  <ellipse cx="57.144" cy="167.263" fill="#eee045" rx="12.248" ry="36"
    transform="matrix(.966 -.259 .259 .966 -41.344 20.489)" />
  <path
    d="m184.406 133.163c-5.146-19.205-4.021-36.193 2.513-37.943-19.205 5.146-30.602 24.886-25.456 44.091s24.886 30.602 44.091 25.456c-6.534 1.751-16.002-12.399-21.148-31.604z"
    fill="#ede49d" />
  <path
    d="m186.919 95.22c6.534-1.751 16.002 12.398 21.148 31.603s4.021 36.193-2.513 37.943c19.205-5.146 30.602-24.886 25.456-44.091-5.146-19.204-24.886-30.601-44.091-25.455z"
    fill="#d3ba2a" />
  <ellipse cx="196.237" cy="129.993" fill="#eee045" rx="12.248" ry="36"
    transform="matrix(.966 -.259 .259 .966 -26.958 55.219)" />
  <g fill="#1c2d6b">
    <path
      d="m57.152 206.268c-17.219 0-33.017-11.506-37.68-28.91-5.565-20.772 6.806-42.2 27.577-47.765 20.772-5.567 42.199 6.805 47.765 27.577 5.565 20.771-6.806 42.198-27.577 47.765-3.367.902-6.753 1.333-10.085 1.333zm.046-72.019c-2.867 0-5.752.377-8.596 1.139-8.515 2.281-15.631 7.742-20.038 15.376-4.407 7.633-5.578 16.526-3.297 25.041 4.71 17.576 22.841 28.043 40.417 23.335 17.576-4.71 28.044-22.841 23.335-40.417-2.282-8.515-7.742-15.631-15.376-20.038-5.083-2.936-10.728-4.436-16.445-4.436z" />
    <path
      d="m196.173 169.011c-6.758 0-13.427-1.772-19.436-5.242-9.022-5.209-15.476-13.619-18.171-23.682-2.696-10.062-1.313-20.571 3.896-29.594 5.209-9.021 13.618-15.475 23.681-18.171 20.769-5.565 42.199 6.805 47.765 27.577 2.696 10.062 1.313 20.572-3.896 29.594s-13.618 15.476-23.681 18.171c-3.36.9-6.77 1.347-10.158 1.347zm.117-72.032c-2.867 0-5.752.377-8.595 1.139-8.514 2.282-15.63 7.742-20.037 15.376s-5.578 16.527-3.297 25.041c2.281 8.515 7.742 15.631 15.376 20.038 7.634 4.408 16.527 5.577 25.041 3.297 8.514-2.281 15.63-7.742 20.037-15.376s5.578-16.526 3.297-25.041c-2.281-8.515-7.742-15.631-15.376-20.038-5.084-2.936-10.728-4.436-16.446-4.436z" />
    <path
      d="m57.144 170.264c-.829 0-1.636-.345-2.212-.973-.756-.825-.99-2.002-.607-3.053l25.04-68.826c.335-.92 1.098-1.619 2.043-1.872l69.546-18.635c1.095-.297 2.267.057 3.021.907l8.856 9.986c.031.034.062.068.092.104l35.559 40.101c1.1 1.239.986 3.136-.254 4.234-1.239 1.101-3.135.988-4.234-.254l-32.845-37.038-31.859 55.183c-.397.689-1.053 1.191-1.821 1.397l-69.549 18.636c-.257.069-.518.103-.776.103zm27.325-69.333-22.536 61.944 62.781-16.823 32.237-55.838-6.236-7.033z" />
    <path
      d="m144.494 171.705c-.828 0-1.652-.341-2.245-1.01l-62.31-70.268c-1.1-1.239-.986-3.136.254-4.234s3.135-.986 4.234.254l62.31 70.268c1.1 1.239.986 3.136-.254 4.234-.571.507-1.281.756-1.989.756z" />
    <path
      d="m132.899 174.812c-1.324 0-2.537-.884-2.896-2.225-.429-1.601.521-3.245 2.121-3.674l17.387-4.659c1.6-.434 3.246.521 3.674 2.121.429 1.601-.521 3.245-2.121 3.674l-17.387 4.659c-.259.07-.521.104-.778.104z" />
    <path
      d="m169.533 102.879c-.828 0-1.652-.341-2.246-1.01l-30.237-34.1c-1.853-2.09-2.479-4.935-1.676-7.61.804-2.674 2.894-4.702 5.591-5.425l21.164-5.67c1.601-.433 3.246.521 3.674 2.121.429 1.601-.521 3.245-2.121 3.674l-21.164 5.67c-.972.261-1.301 1.035-1.397 1.356s-.248 1.149.42 1.903l30.236 34.1c1.1 1.239.986 3.136-.254 4.235-.572.507-1.282.756-1.99.756z" />
  </g>
  <path
    d="m66.104 94.294c-.727-2.711-.875-5.179-.54-6.783l-7.21.553c-5.097.39-8.585 5.315-7.262 10.253 1.167 4.355 5.643 6.939 9.998 5.773l9.906-2.654c-1.534.41-3.725-2.787-4.892-7.142z"
    fill="#a4d4a0" />
  <path d="m72.893 86.95 9.335 2.156 2.33 8.695 15.012-4.022-2.33-8.695z" fill="#419b46" />
  <path
    d="m72.893 86.95-7.329.562c-.335 1.604-.186 4.071.54 6.783 1.167 4.355 3.357 7.552 4.892 7.141l13.562-3.634-2.33-8.695z"
    fill="#65bc49" />
  <path
    d="m58.96 107.372c-1.935 0-3.844-.508-5.563-1.5-2.582-1.491-4.43-3.898-5.201-6.779-.862-3.218-.253-6.623 1.673-9.342 1.925-2.719 4.935-4.424 8.257-4.679l38.886-2.979c1.455-.108 2.753.82 3.127 2.215l2.33 8.694c.206.769.099 1.587-.3 2.276-.397.689-1.053 1.191-1.821 1.397l-38.479 10.311c-.964.258-1.939.386-2.909.386zm36.027-19.106-36.403 2.789c-1.537.118-2.929.906-3.819 2.164s-1.173 2.833-.774 4.321c.357 1.332 1.212 2.446 2.406 3.136s2.585.873 3.918.516l35.581-9.534z"
    fill="#1c2d6b" />
  <path d="m145.211 49.159h18v10.263h-18z" fill="#6287c5" transform="matrix(.966 -.259 .259 .966 -8.797 41.763)" />
  <path
    d="m146.845 64.577c-1.324 0-2.536-.884-2.896-2.225l-2.657-9.913c-.206-.769-.099-1.587.299-2.276.398-.688 1.054-1.191 1.822-1.397l17.387-4.659c.768-.205 1.587-.099 2.276.3.689.397 1.191 1.053 1.397 1.821l2.656 9.914c.429 1.601-.521 3.245-2.121 3.674l-17.386 4.658c-.259.07-.52.103-.777.103zm1.019-10.793 1.104 4.118 11.591-3.105-1.104-4.118z"
    fill="#1c2d6b" />
</svg>